<svg xmlns="http://www.w3.org/2000/svg" width="192" height="192" viewBox="0 0 192 192" shape-rendering="crispEdges">
  <rect width="192" height="192" fill="#f8f9fa" rx="4"/>
  <rect x="48" y="0" width="12" height="12" fill="#2c3e50"/>
  <rect x="60" y="0" width="12" height="12" fill="#2c3e50"/>
  <rect x="72" y="0" width="12" height="12" fill="#2c3e50"/>
  <rect x="84" y="0" width="12" height="12" fill="#2c3e50"/>
  <rect x="96" y="0" width="12" height="12" fill="#2c3e50"/>
  <rect x="108" y="0" width="12" height="12" fill="#2c3e50"/>
  <rect x="120" y="0" width="12" height="12" fill="#2c3e50"/>
  <rect x="36" y="12" width="12" height="12" fill="#2c3e50"/>
  <rect x="48" y="12" width="12" height="12" fill="#2c3e50"/>
  <rect x="60" y="12" width="12" height="12" fill="#2c3e50"/>
  <rect x="72" y="12" width="12" height="12" fill="#2c3e50"/>
  <rect x="84" y="12" width="12" height="12" fill="#2c3e50"/>
  <rect x="96" y="12" width="12" height="12" fill="#2c3e50"/>
  <rect x="108" y="12" width="12" height="12" fill="#2c3e50"/>
  <rect x="120" y="12" width="12" height="12" fill="#2c3e50"/>
  <rect x="132" y="12" width="12" height="12" fill="#2c3e50"/>
  <rect x="144" y="12" width="12" height="12" fill="#2c3e50"/>
  <rect x="48" y="24" width="12" height="12" fill="#f39c12"/>
  <rect x="60" y="24" width="12" height="12" fill="#f39c12"/>
  <rect x="72" y="24" width="12" height="12" fill="#f39c12"/>
  <rect x="84" y="24" width="12" height="12" fill="#f39c12"/>
  <rect x="96" y="24" width="12" height="12" fill="#f39c12"/>
  <rect x="108" y="24" width="12" height="12" fill="#f39c12"/>
  <rect x="36" y="36" width="12" height="12" fill="#f39c12"/>
  <rect x="48" y="36" width="12" height="12" fill="#f39c12"/>
  <rect x="60" y="36" width="12" height="12" fill="#2c3e50"/>
  <rect x="72" y="36" width="12" height="12" fill="#2c3e50"/>
  <rect x="84" y="36" width="12" height="12" fill="#2c3e50"/>
  <rect x="96" y="36" width="12" height="12" fill="#2c3e50"/>
  <rect x="108" y="36" width="12" height="12" fill="#f39c12"/>
  <rect x="120" y="36" width="12" height="12" fill="#f39c12"/>
  <rect x="36" y="48" width="12" height="12" fill="#f39c12"/>
  <rect x="48" y="48" width="12" height="12" fill="#2c3e50"/>
  <rect x="60" y="48" width="12" height="12" fill="#f5cba7"/>
  <rect x="72" y="48" width="12" height="12" fill="#f5cba7"/>
  <rect x="84" y="48" width="12" height="12" fill="#f5cba7"/>
  <rect x="96" y="48" width="12" height="12" fill="#f5cba7"/>
  <rect x="108" y="48" width="12" height="12" fill="#2c3e50"/>
  <rect x="120" y="48" width="12" height="12" fill="#f39c12"/>
  <rect x="36" y="60" width="12" height="12" fill="#2c3e50"/>
  <rect x="48" y="60" width="12" height="12" fill="#f5cba7"/>
  <rect x="60" y="60" width="12" height="12" fill="#f5cba7"/>
  <rect x="72" y="60" width="12" height="12" fill="#f5cba7"/>
  <rect x="84" y="60" width="12" height="12" fill="#f5cba7"/>
  <rect x="96" y="60" width="12" height="12" fill="#f5cba7"/>
  <rect x="108" y="60" width="12" height="12" fill="#f5cba7"/>
  <rect x="120" y="60" width="12" height="12" fill="#2c3e50"/>
  <rect x="36" y="72" width="12" height="12" fill="#2c3e50"/>
  <rect x="48" y="72" width="12" height="12" fill="#f5cba7"/>
  <rect x="60" y="72" width="12" height="12" fill="#fff"/>
  <rect x="72" y="72" width="12" height="12" fill="#f5cba7"/>
  <rect x="84" y="72" width="12" height="12" fill="#f5cba7"/>
  <rect x="96" y="72" width="12" height="12" fill="#fff"/>
  <rect x="108" y="72" width="12" height="12" fill="#f5cba7"/>
  <rect x="120" y="72" width="12" height="12" fill="#2c3e50"/>
  <rect x="36" y="84" width="12" height="12" fill="#2c3e50"/>
  <rect x="48" y="84" width="12" height="12" fill="#f5cba7"/>
  <rect x="60" y="84" width="12" height="12" fill="#f5cba7"/>
  <rect x="72" y="84" width="12" height="12" fill="#f5cba7"/>
  <rect x="84" y="84" width="12" height="12" fill="#f5cba7"/>
  <rect x="96" y="84" width="12" height="12" fill="#f5cba7"/>
  <rect x="108" y="84" width="12" height="12" fill="#f5cba7"/>
  <rect x="120" y="84" width="12" height="12" fill="#2c3e50"/>
  <rect x="36" y="96" width="12" height="12" fill="#2c3e50"/>
  <rect x="48" y="96" width="12" height="12" fill="#f5cba7"/>
  <rect x="60" y="96" width="12" height="12" fill="#f5cba7"/>
  <rect x="72" y="96" width="12" height="12" fill="#f39c12"/>
  <rect x="84" y="96" width="12" height="12" fill="#f39c12"/>
  <rect x="96" y="96" width="12" height="12" fill="#f5cba7"/>
  <rect x="108" y="96" width="12" height="12" fill="#f5cba7"/>
  <rect x="120" y="96" width="12" height="12" fill="#2c3e50"/>
  <rect x="36" y="108" width="12" height="12" fill="#2c3e50"/>
  <rect x="48" y="108" width="12" height="12" fill="#2c3e50"/>
  <rect x="60" y="108" width="12" height="12" fill="#f5cba7"/>
  <rect x="72" y="108" width="12" height="12" fill="#6c63ff"/>
  <rect x="84" y="108" width="12" height="12" fill="#6c63ff"/>
  <rect x="96" y="108" width="12" height="12" fill="#f5cba7"/>
  <rect x="108" y="108" width="12" height="12" fill="#2c3e50"/>
  <rect x="120" y="108" width="12" height="12" fill="#2c3e50"/>
  <rect x="36" y="120" width="12" height="12" fill="#2c3e50"/>
  <rect x="48" y="120" width="12" height="12" fill="#6c63ff"/>
  <rect x="60" y="120" width="12" height="12" fill="#6c63ff"/>
  <rect x="72" y="120" width="12" height="12" fill="#6c63ff"/>
  <rect x="84" y="120" width="12" height="12" fill="#6c63ff"/>
  <rect x="96" y="120" width="12" height="12" fill="#6c63ff"/>
  <rect x="108" y="120" width="12" height="12" fill="#6c63ff"/>
  <rect x="120" y="120" width="12" height="12" fill="#2c3e50"/>
  <rect x="36" y="132" width="12" height="12" fill="#6c63ff"/>
  <rect x="48" y="132" width="12" height="12" fill="#6c63ff"/>
  <rect x="60" y="132" width="12" height="12" fill="#6c63ff"/>
  <rect x="72" y="132" width="12" height="12" fill="#6c63ff"/>
  <rect x="84" y="132" width="12" height="12" fill="#6c63ff"/>
  <rect x="96" y="132" width="12" height="12" fill="#6c63ff"/>
  <rect x="108" y="132" width="12" height="12" fill="#6c63ff"/>
  <rect x="120" y="132" width="12" height="12" fill="#6c63ff"/>
  <rect x="36" y="144" width="12" height="12" fill="#6c63ff"/>
  <rect x="48" y="144" width="12" height="12" fill="#6c63ff"/>
  <rect x="60" y="144" width="12" height="12" fill="#6c63ff"/>
  <rect x="72" y="144" width="12" height="12" fill="#6c63ff"/>
  <rect x="84" y="144" width="12" height="12" fill="#6c63ff"/>
  <rect x="96" y="144" width="12" height="12" fill="#6c63ff"/>
  <rect x="108" y="144" width="12" height="12" fill="#6c63ff"/>
  <rect x="120" y="144" width="12" height="12" fill="#6c63ff"/>
  <rect x="36" y="156" width="12" height="12" fill="#6c63ff"/>
  <rect x="48" y="156" width="12" height="12" fill="#6c63ff"/>
  <rect x="60" y="156" width="12" height="12" fill="#6c63ff"/>
  <rect x="72" y="156" width="12" height="12" fill="#1a1a2e"/>
  <rect x="84" y="156" width="12" height="12" fill="#1a1a2e"/>
  <rect x="96" y="156" width="12" height="12" fill="#6c63ff"/>
  <rect x="108" y="156" width="12" height="12" fill="#6c63ff"/>
  <rect x="120" y="156" width="12" height="12" fill="#6c63ff"/>
  <rect x="36" y="168" width="12" height="12" fill="#6c63ff"/>
  <rect x="48" y="168" width="12" height="12" fill="#6c63ff"/>
  <rect x="60" y="168" width="12" height="12" fill="#6c63ff"/>
  <rect x="72" y="168" width="12" height="12" fill="#1a1a2e"/>
  <rect x="84" y="168" width="12" height="12" fill="#1a1a2e"/>
  <rect x="96" y="168" width="12" height="12" fill="#6c63ff"/>
  <rect x="108" y="168" width="12" height="12" fill="#6c63ff"/>
  <rect x="120" y="168" width="12" height="12" fill="#6c63ff"/>
  <rect x="36" y="180" width="12" height="12" fill="#6c63ff"/>
  <rect x="48" y="180" width="12" height="12" fill="#6c63ff"/>
  <rect x="60" y="180" width="12" height="12" fill="#6c63ff"/>
  <rect x="72" y="180" width="12" height="12" fill="#6c63ff"/>
  <rect x="84" y="180" width="12" height="12" fill="#6c63ff"/>
  <rect x="96" y="180" width="12" height="12" fill="#6c63ff"/>
  <rect x="108" y="180" width="12" height="12" fill="#6c63ff"/>
  <rect x="120" y="180" width="12" height="12" fill="#6c63ff"/>
</svg>